<?xml version="1.0" standalone="no"?>
<!DOCTYPE svg PUBLIC "-//W3C//DTD SVG 20010904//EN"
 "http://www.w3.org/TR/2001/REC-SVG-20010904/DTD/svg10.dtd">
<svg version="1.0" xmlns="http://www.w3.org/2000/svg"
 width="180.000000pt" height="101.000000pt" viewBox="0 0 180.000000 101.000000"
 preserveAspectRatio="xMidYMid meet">

<g transform="translate(0.000000,101.000000) scale(0.100000,-0.100000)"
fill="#000000" stroke="none">
<path d="M908 734 c-5 -4 -8 -92 -8 -197 l0 -189 115 4 c110 3 116 4 142 31
22 22 28 37 28 73 0 38 -5 50 -28 70 l-28 23 20 20 c44 44 38 107 -12 145 -23
17 -46 22 -125 24 -53 2 -100 0 -104 -4z m205 -51 c19 -23 23 -41 14 -75 -9
-33 -49 -48 -128 -48 l-59 0 0 70 0 70 78 0 c63 0 82 -4 95 -17z m-3 -166 c19
-10 26 -21 28 -53 4 -60 -19 -76 -118 -82 l-80 -5 0 77 0 76 73 0 c39 0 83 -6
97 -13z"/>
<path d="M1275 728 c-3 -8 -4 -95 -3 -193 3 -172 4 -180 23 -180 19 0 20 7 20
190 0 173 -2 190 -18 193 -9 2 -19 -3 -22 -10z"/>
<path d="M1370 720 c0 -18 6 -20 70 -20 l70 0 0 -176 0 -175 23 3 c22 3 22 5
25 175 l2 172 68 3 c52 2 67 6 67 18 0 13 -26 15 -162 18 -158 2 -163 2 -163
-18z"/>
<path d="M650 630 c0 -5 7 -10 15 -10 31 0 13 -17 -50 -48 -36 -18 -69 -32
-74 -32 -5 0 -14 14 -21 30 -7 17 -17 33 -21 36 -5 3 -84 -40 -175 -96 -92
-56 -173 -99 -180 -96 -10 4 -14 24 -14 66 0 47 -3 60 -15 60 -12 0 -15 -13
-15 -61 0 -72 12 -99 45 -99 14 0 95 43 181 95 87 52 158 94 159 93 2 -2 10
-18 19 -35 9 -18 21 -33 26 -33 6 0 46 18 90 40 77 39 79 39 82 17 3 -19 7
-16 26 20 12 23 22 47 22 53 0 5 -22 10 -50 10 -27 0 -50 -4 -50 -10z"/>
<path d="M830 460 l0 -80 -226 0 c-151 0 -233 -4 -247 -12 -12 -6 -45 -31 -73
-55 -28 -23 -54 -43 -58 -43 -3 0 -6 25 -6 55 0 60 -14 74 -24 24 -13 -67 -5
-129 18 -129 6 1 45 30 86 65 l75 65 230 0 c166 0 234 3 243 12 7 7 12 44 12
95 0 67 -3 83 -15 83 -12 0 -15 -16 -15 -80z"/>
<path d="M401 260 c-19 -11 -9 -45 14 -45 13 0 21 8 23 21 3 23 -17 37 -37 24z
m29 -26 c0 -8 -7 -14 -15 -14 -15 0 -21 21 -9 33 10 9 24 -2 24 -19z"/>
<path d="M1430 260 c-13 -9 -13 -12 3 -24 14 -11 15 -15 5 -19 -8 -4 -7 -6 5
-6 9 -1 17 6 17 14 0 8 -7 15 -16 15 -14 0 -14 3 -4 15 14 17 11 19 -10 5z"/>
<path d="M340 250 c0 -6 8 -14 17 -17 15 -6 15 -7 -3 -14 -16 -6 -16 -8 -2 -8
26 -1 29 14 7 32 -10 9 -19 12 -19 7z"/>
<path d="M461 238 c-1 -21 4 -28 17 -28 11 0 13 3 6 8 -7 4 -14 16 -17 27 -4
15 -5 14 -6 -7z"/>
<path d="M504 235 c1 -29 41 -27 42 3 1 18 1 19 -3 2 -5 -25 -30 -26 -36 -2
-3 13 -4 12 -3 -3z"/>
<path d="M564 245 c-8 -19 4 -35 24 -34 14 1 14 2 -1 6 -13 3 -17 11 -14 24 6
22 -1 26 -9 4z"/>
<path d="M622 235 c0 -16 2 -22 5 -12 2 9 2 23 0 30 -3 6 -5 -1 -5 -18z"/>
<path d="M644 245 c-3 -8 -3 -19 1 -25 10 -16 42 -12 49 6 7 19 0 34 -17 34
-8 0 -7 -3 2 -9 16 -11 6 -31 -16 -31 -10 0 -14 6 -10 20 6 23 -1 27 -9 5z"/>
<path d="M711 234 c0 -25 2 -26 9 -9 7 18 8 19 15 3 11 -27 25 -21 24 10 -1
18 -3 21 -6 9 -5 -18 -6 -18 -24 -1 -18 16 -19 16 -18 -12z"/>
<path d="M770 235 c0 -20 5 -25 23 -24 19 1 19 2 3 6 -11 3 -14 8 -9 12 7 4 6
11 -3 19 -12 11 -14 9 -14 -13z"/>
<path d="M821 252 c-1 -7 7 -16 16 -19 15 -6 15 -7 -3 -14 -17 -7 -17 -8 4 -8
13 -1 22 5 22 14 0 8 -6 15 -14 15 -8 0 -17 6 -19 13 -4 9 -6 9 -6 -1z"/>
<path d="M892 235 c0 -16 2 -22 5 -12 2 9 2 23 0 30 -3 6 -5 -1 -5 -18z"/>
<path d="M921 234 c0 -25 2 -26 9 -9 7 18 8 19 15 3 11 -27 25 -21 24 10 -1
18 -3 21 -6 9 -5 -18 -6 -18 -24 -1 -18 16 -19 16 -18 -12z"/>
<path d="M990 235 c0 -14 2 -25 4 -25 2 0 6 11 8 25 3 14 1 25 -3 25 -5 0 -9
-11 -9 -25z"/>
<path d="M1030 235 c0 -20 5 -25 23 -24 19 1 19 2 3 6 -11 3 -14 8 -9 12 7 4
6 11 -3 19 -12 11 -14 9 -14 -13z"/>
<path d="M1081 238 c-1 -21 4 -28 17 -28 11 0 13 3 6 8 -7 4 -14 16 -17 27 -4
15 -5 14 -6 -7z"/>
<path d="M1132 235 c0 -16 2 -22 5 -12 2 9 2 23 0 30 -3 6 -5 -1 -5 -18z"/>
<path d="M1150 240 c0 -24 26 -38 42 -22 8 8 4 9 -12 5 -20 -5 -22 -3 -18 15
4 12 2 22 -3 22 -5 0 -9 -9 -9 -20z"/>
<path d="M1210 235 c0 -20 5 -25 23 -24 19 1 19 2 3 6 -11 3 -14 8 -9 12 7 4
6 11 -3 19 -12 11 -14 9 -14 -13z"/>
<path d="M1261 233 c1 -19 3 -22 6 -10 5 18 6 18 24 1 18 -16 19 -16 19 12 0
20 -3 25 -9 15 -6 -9 -11 -10 -15 -2 -13 20 -26 11 -25 -16z"/>
<path d="M1338 235 c2 -14 6 -25 8 -25 2 0 4 11 4 25 0 14 -4 25 -9 25 -4 0
-6 -11 -3 -25z"/>
<path d="M1370 235 c0 -19 5 -25 23 -24 21 0 21 1 2 8 l-20 8 20 5 c17 5 18 6
2 7 -10 0 -15 6 -12 11 3 6 1 10 -4 10 -6 0 -11 -11 -11 -25z"/>
</g>
</svg>
